<?xml version="1.0" encoding="UTF-8" standalone="no"?>
<!-- Generator: Adobe Illustrator 19.2.1, SVG Export Plug-In . SVG Version: 6.00 Build 0)  -->

<svg
   xmlns:dc="http://purl.org/dc/elements/1.1/"
   xmlns:cc="http://creativecommons.org/ns#"
   xmlns:rdf="http://www.w3.org/1999/02/22-rdf-syntax-ns#"
   xmlns:svg="http://www.w3.org/2000/svg"
   xmlns="http://www.w3.org/2000/svg"
   xmlns:sodipodi="http://sodipodi.sourceforge.net/DTD/sodipodi-0.dtd"
   xmlns:inkscape="http://www.inkscape.org/namespaces/inkscape"
   version="1.1"
   id="Layer_1"
   x="0px"
   y="0px"
   viewBox="0 0 50 29.640718"
   xml:space="preserve"
   inkscape:version="0.91 r13725"
   sodipodi:docname="Firewall.svg"
   width="50"
   height="29.640718"><metadata
     id="metadata60"><rdf:RDF><cc:Work
         rdf:about=""><dc:format>image/svg+xml</dc:format><dc:type
           rdf:resource="http://purl.org/dc/dcmitype/StillImage" /><dc:title></dc:title></cc:Work></rdf:RDF></metadata><defs
     id="defs58" /><sodipodi:namedview
     pagecolor="#ffffff"
     bordercolor="#666666"
     borderopacity="1"
     objecttolerance="10"
     gridtolerance="10"
     guidetolerance="10"
     inkscape:pageopacity="0"
     inkscape:pageshadow="2"
     inkscape:window-width="1855"
     inkscape:window-height="1056"
     id="namedview56"
     showgrid="false"
     fit-margin-top="0"
     fit-margin-left="0"
     fit-margin-right="0"
     fit-margin-bottom="0"
     inkscape:zoom="4.72"
     inkscape:cx="25"
     inkscape:cy="25.1"
     inkscape:window-x="1985"
     inkscape:window-y="24"
     inkscape:window-maximized="1"
     inkscape:current-layer="Layer_1" /><style
     type="text/css"
     id="style3">
	.st0{fill:#4D4D4C;}
	.st1{fill:#E2E2E0;}
	.st2{fill:#999996;}
	.st3{fill:#D14443;}
	.st4{fill:#EDEDEB;}
	.st5{fill:#333333;}
	.st6{fill:#CDCCCC;}
</style><g
     id="router"
     transform="matrix(0.99800399,0,0,0.99800399,0,-20.359281)"><path
       class="st0"
       d="M 1.6,50.1 C 0.7,50.1 0,49.4 0,48.5 l 0,-14 C 0,34.2 0.1,33.9 0.2,33.7 L 7.5,21.2 c 0.3,-0.5 0.8,-0.8 1.4,-0.8 l 32.8,0 c 0.6,0 1.1,0.3 1.4,0.8 l 6.8,12.5 c 0.1,0.2 0.2,0.5 0.2,0.7 l 0,14.1 c 0,0.9 -0.7,1.6 -1.6,1.6 l -46.9,0 z"
       id="path6"
       inkscape:connector-curvature="0"
       style="fill:#4d4d4c" /><polygon
       class="st1"
       points="1.6,34.5 1.6,48.5 48.4,48.5 48.4,34.5 41.6,22 8.8,22 "
       id="polygon8"
       style="fill:#e2e2e0" /><rect
       x="1.6"
       y="34.5"
       class="st2"
       width="46.900002"
       height="14.1"
       id="rect10"
       style="fill:#999996" /><polygon
       class="st3"
       points="47.4,37.1 47.4,35.5 2.6,35.5 2.6,48 4.2,48 4.2,37.1 "
       id="polygon12"
       style="fill:#d14443" /><rect
       x="5.1999998"
       y="38.099998"
       class="st4"
       width="14.1"
       height="8.3000002"
       id="rect14"
       style="fill:#ededeb" /><rect
       x="26"
       y="38.099998"
       class="st4"
       width="5.1999998"
       height="8.3000002"
       id="rect16"
       style="fill:#ededeb" /><rect
       x="20.799999"
       y="38.099998"
       class="st4"
       width="3.5999999"
       height="8.3000002"
       id="rect18"
       style="fill:#ededeb" /><rect
       x="34.900002"
       y="42.299999"
       class="st4"
       width="5.1999998"
       height="4.1999998"
       id="rect20"
       style="fill:#ededeb" /><polygon
       class="st5"
       points="9.6,38.9 8.6,38.9 8.6,38.1 7,38.1 7,38.9 6,38.9 6,41.5 9.6,41.5 "
       id="polygon22"
       style="fill:#333333" /><polygon
       class="st5"
       points="14.1,38.9 13,38.9 13,38.1 11.5,38.1 11.5,38.9 10.4,38.9 10.4,41.5 14.1,41.5 "
       id="polygon24"
       style="fill:#333333" /><polygon
       class="st5"
       points="18.5,38.9 17.4,38.9 17.4,38.1 15.9,38.1 15.9,38.9 14.8,38.9 14.8,41.5 18.5,41.5 "
       id="polygon26"
       style="fill:#333333" /><polygon
       class="st5"
       points="14.8,45.7 15.9,45.7 15.9,46.4 17.4,46.4 17.4,45.7 18.5,45.7 18.5,43 14.8,43 "
       id="polygon28"
       style="fill:#333333" /><polygon
       class="st5"
       points="10.4,45.7 11.5,45.7 11.5,46.4 13,46.4 13,45.7 14.1,45.7 14.1,43 10.4,43 "
       id="polygon30"
       style="fill:#333333" /><polygon
       class="st5"
       points="6,45.7 7,45.7 7,46.4 8.6,46.4 8.6,45.7 9.6,45.7 9.6,43 6,43 "
       id="polygon32"
       style="fill:#333333" /><polygon
       class="st5"
       points="30.5,38.9 29.4,38.9 29.4,38.1 27.9,38.1 27.9,38.9 26.8,38.9 26.8,41.5 30.5,41.5 "
       id="polygon34"
       style="fill:#333333" /><polygon
       class="st5"
       points="26.8,45.7 27.9,45.7 27.9,46.4 29.4,46.4 29.4,45.7 30.5,45.7 30.5,43 26.8,43 "
       id="polygon36"
       style="fill:#333333" /><polygon
       class="st5"
       points="35.7,45.7 36.7,45.7 36.7,46.4 38.3,46.4 38.3,45.7 39.3,45.7 39.3,43 35.7,43 "
       id="polygon38"
       style="fill:#333333" /><rect
       x="32.900002"
       y="38.099998"
       class="st5"
       width="7.6999998"
       height="1"
       id="rect40"
       style="fill:#333333" /><rect
       x="41.599998"
       y="44.299999"
       class="st5"
       width="4.6999998"
       height="2.0999999"
       id="rect42"
       style="fill:#333333" /><g
       id="g44"><rect
         x="41.599998"
         y="38.099998"
         class="st5"
         width="4.6999998"
         height="1.6"
         id="rect46"
         style="fill:#333333" /><rect
         x="43.700001"
         y="38.099998"
         class="st5"
         width="0.5"
         height="3.5999999"
         id="rect48"
         style="fill:#333333" /></g><rect
       x="20.799999"
       y="38.099998"
       class="st5"
       width="3.5999999"
       height="3.4000001"
       id="rect50"
       style="fill:#333333" /><rect
       x="20.799999"
       y="43"
       class="st5"
       width="3.5999999"
       height="3.4000001"
       id="rect52"
       style="fill:#333333" /><rect
       x="41.599998"
       y="45.700001"
       class="st6"
       width="4.6999998"
       height="0.80000001"
       id="rect54"
       style="fill:#cdcccc" /></g></svg>