<?xml version="1.0" encoding="UTF-8" standalone="no"?>
<svg
   xmlns:dc="http://purl.org/dc/elements/1.1/"
   xmlns:cc="http://creativecommons.org/ns#"
   xmlns:rdf="http://www.w3.org/1999/02/22-rdf-syntax-ns#"
   xmlns:svg="http://www.w3.org/2000/svg"
   xmlns="http://www.w3.org/2000/svg"
   xmlns:sodipodi="http://sodipodi.sourceforge.net/DTD/sodipodi-0.dtd"
   xmlns:inkscape="http://www.inkscape.org/namespaces/inkscape"
   version="1.1"
   xml:space="preserve"
   width="40"
   height="18.775513"
   viewBox="0 0 40 18.775513"
   id="svg4081"
   inkscape:version="0.91 r13725"
   sodipodi:docname="wireless_node.svg"><metadata
     id="metadata4108"><rdf:RDF><cc:Work
         rdf:about=""><dc:format>image/svg+xml</dc:format><dc:type
           rdf:resource="http://purl.org/dc/dcmitype/StillImage" /><dc:title></dc:title></cc:Work></rdf:RDF></metadata><defs
     id="defs4106" /><sodipodi:namedview
     pagecolor="#ffffff"
     bordercolor="#666666"
     borderopacity="1"
     objecttolerance="10"
     gridtolerance="10"
     guidetolerance="10"
     inkscape:pageopacity="0"
     inkscape:pageshadow="2"
     inkscape:window-width="1855"
     inkscape:window-height="1056"
     id="namedview4104"
     showgrid="false"
     inkscape:zoom="1.9666667"
     inkscape:cx="7.2033901"
     inkscape:cy="7.5645775"
     inkscape:window-x="1985"
     inkscape:window-y="24"
     inkscape:window-maximized="1"
     inkscape:current-layer="svg4081"
     fit-margin-top="0"
     fit-margin-left="0"
     fit-margin-right="0"
     fit-margin-bottom="0" /><rect
     id="backgroundrect"
     width="150"
     height="120"
     x="-5"
     y="-101.22449"
     style="fill:none;stroke:none" /><style
     type="text/css"
     id="style4084">
	.st0{fill:#4C4C4B;}
	.st1{fill:#E2E2E0;}
	.st2{fill:#999996;}
	.st3{fill:#FFFFFF;}
	.st4{fill:#231F20;}
</style><g
     class="currentLayer"
     id="g4086"
     transform="matrix(0.40816327,0,0,0.40816327,-10.612245,-30.20408)"><title
       id="title4088">Layer 1</title><g
       id="svg_1"
       class=""><g
         id="svg_2"><g
           id="Parts_22_"><path
             class="st0"
             d="m 29.000001,120 c -1.7,0 -3,-1.3 -3,-3 l 0,-30.000004 c 0,-0.7 0.2,-1.3 0.7,-1.9 l 16,-10 c 0.6,-0.7 1.4,-1.1 2.3,-1.1 l 59.999999,0 c 0.9,0 1.8,0.4 2.3,1.1 l 16,10 c 0.4,0.5 0.7,1.2 0.7,1.9 L 124,117 c 0,1.7 -1.3,3 -3,3 l -91.999999,0 z"
             id="svg_3"
             inkscape:connector-curvature="0"
             style="fill:#4c4c4b" /><polygon
             class="st1"
             points="105,76.999992 45,76.999992 29,86.999992 29,116.99999 121,116.99999 121,86.999992 "
             id="svg_4"
             style="fill:#e2e2e0" /><rect
             x="29.000002"
             y="86.999992"
             class="st2"
             width="92"
             height="30"
             id="svg_5"
             style="fill:#999996" /></g></g><g
         id="svg_6"><path
           class="st3"
           d="m 86.800001,107.2 -6.9,0 -1.5,3.8 -3.2,0 6.8,-16.300004 2.8,0 6.8,16.300004 -3.3,0 -1.5,-3.8 z m -6,-2.3 5.2,0 -2.6,-6.800004 -2.6,6.800004 z"
           id="svg_7"
           inkscape:connector-curvature="0"
           style="fill:#ffffff" /><path
           class="st3"
           d="m 97.000001,104.9 0,6 -3.1,0 0,-16.200004 6.899999,0 c 2,0 3.6,0.5 4.8,1.4 1.2,1 1.8,2.2 1.8,3.8 0,1.600004 -0.6,2.800004 -1.7,3.700004 -1.2,0.9 -2.8,1.3 -4.8,1.3 l -3.899999,0 z m 0,-2.2 3.699999,0 c 1.1,0 2,-0.2 2.5,-0.7 0.6,-0.5 0.9,-1.2 0.9,-2.100004 0,-0.9 -0.3,-1.6 -0.9,-2.1 -0.6,-0.5 -1.4,-0.8 -2.4,-0.8 l -3.799999,0 0,5.700004 z"
           id="svg_8"
           inkscape:connector-curvature="0"
           style="fill:#ffffff" /></g><g
         id="svg_9"><circle
           class="st4"
           cx="58"
           cy="110.8"
           r="3.0999999"
           id="svg_10"
           style="fill:#231f20" /><path
           class="st4"
           d="m 58.100001,102 c -3.1,0 -6,1.2 -8.2,3.3 l -0.4,0.4 1.8,2.1 0.4,-0.4 c 1.7,-1.7 4,-2.5 6.3,-2.5 2.3,0 4.4,0.9 6.2,2.4 l 0.4,0.4 2,-1.8 -0.3,-0.7 c -2.2,-2.1 -5.1,-3.2 -8.2,-3.2 z"
           id="svg_11"
           inkscape:connector-curvature="0"
           style="fill:#231f20" /><path
           class="st4"
           d="m 57.900001,96.499996 c -4.4,0 -8.6,1.7 -11.8,4.600004 l -0.4,0.4 1.8,2.1 0.4,-0.4 c 2.8,-2.5 6.2,-3.900004 10,-3.900004 3.9,0 7.6,1.500004 10.3,4.200004 l 0.4,0.4 2,-1.8 -0.4,-0.4 c -3.3,-3.400004 -7.6,-5.200004 -12.3,-5.200004 z"
           id="svg_12"
           inkscape:connector-curvature="0"
           style="fill:#231f20" /><path
           class="st4"
           d="m 74.300001,97.699996 c -4.4,-4.6 -10.4,-7 -16.7,-7 -5.8,0 -11.3,2.2 -15.7,6.1 l -0.4,0.4 1.8,2.1 0.4,-0.4 c 3.8,-3.5 8.7,-5.4 13.8,-5.4 5.5,0 10.8,2.2 14.7,6.2 l 0.4,0.400004 2,-1.800004 -0.3,-0.6 z"
           id="svg_13"
           inkscape:connector-curvature="0"
           style="fill:#231f20" /></g></g></g></svg>
